<?xml version="1.0" encoding="UTF-8" standalone="no"?>
<!-- Created with Inkscape (http://www.inkscape.org/) -->

<svg
   xmlns:dc="http://purl.org/dc/elements/1.1/"
   xmlns:cc="http://creativecommons.org/ns#"
   xmlns:rdf="http://www.w3.org/1999/02/22-rdf-syntax-ns#"
   xmlns:svg="http://www.w3.org/2000/svg"
   xmlns="http://www.w3.org/2000/svg"
   xmlns:xlink="http://www.w3.org/1999/xlink"
   xmlns:sodipodi="http://sodipodi.sourceforge.net/DTD/sodipodi-0.dtd"
   xmlns:inkscape="http://www.inkscape.org/namespaces/inkscape"
   width="158.80763mm"
   height="225.44958mm"
   viewBox="0 0 158.80763 225.44958"
   version="1.1"
   id="svg8"
   inkscape:version="0.92.3 (2405546, 2018-03-11)"
   sodipodi:docname="Ti-poll.svg"
   inkscape:export-filename="C:\Users\Clark thy Lord\Desktop\Ti-poll.png"
   inkscape:export-xdpi="96"
   inkscape:export-ydpi="96">
  <defs
     id="defs2">
    <linearGradient
       inkscape:collect="always"
       id="linearGradient4650">
      <stop
         style="stop-color:#000000;stop-opacity:1;"
         offset="0"
         id="stop4646" />
      <stop
         style="stop-color:#000000;stop-opacity:0;"
         offset="1"
         id="stop4648" />
    </linearGradient>
    <linearGradient
       inkscape:collect="always"
       xlink:href="#linearGradient4650"
       id="linearGradient4652"
       x1="127.639"
       y1="427.74591"
       x2="727.85693"
       y2="427.74591"
       gradientUnits="userSpaceOnUse" />
  </defs>
  <sodipodi:namedview
     id="base"
     pagecolor="#ffffff"
     bordercolor="#666666"
     borderopacity="1.0"
     inkscape:pageopacity="0.0"
     inkscape:pageshadow="2"
     inkscape:zoom="0.98994949"
     inkscape:cx="429.00721"
     inkscape:cy="387.06699"
     inkscape:document-units="mm"
     inkscape:current-layer="layer1"
     showgrid="false"
     inkscape:window-width="1920"
     inkscape:window-height="1001"
     inkscape:window-x="-9"
     inkscape:window-y="-9"
     inkscape:window-maximized="1" />
  <metadata
     id="metadata5">
    <rdf:RDF>
      <cc:Work
         rdf:about="">
        <dc:format>image/svg+xml</dc:format>
        <dc:type
           rdf:resource="http://purl.org/dc/dcmitype/StillImage" />
        <dc:title></dc:title>
      </cc:Work>
    </rdf:RDF>
  </metadata>
  <g
     inkscape:label="Layer 1"
     inkscape:groupmode="layer"
     id="layer1"
     transform="translate(-31.721059,-38.682754)">
    <g
       id="g3831"
       transform="matrix(0.26458333,0,0,0.26458333,-2.0499854,38.682706)"
       style="fill:#ff0000;fill-opacity:1;stroke:none;stroke-opacity:1">
      <g
         id="g3775"
         style="fill:#ff0000;fill-opacity:1;stroke:none;stroke-opacity:1">
	<path
   style="fill:#ff0000;fill-opacity:1;stroke:none;stroke-opacity:1"
   d="m 423.19336,146.20312 c -5.53008,-0.0416 -11.14219,2.16211 -15.30469,7.03711 -0.2,0.2 -20.59944,22.69961 -33.39844,47.59961 -10.9,21.3 -19.80139,43.60039 -24.90039,66.90039 -9.6,43.9 -7.90039,90.89844 3.09961,134.39844 3.601,14.2 8.19978,28.10156 13.80078,41.60156 5.399,13 11.19922,26.09883 12.19922,40.29883 1.601,26.5 -22.39843,49.40039 -48.39843,49.40039 -23.3,0 -42.60157,-14.00039 -47.60157,-40.40039 -1.3,-6.8 -8.89843,-10.39843 -14.89843,-6.89844 -88.5,52.1 -147.9004,148.39901 -147.9004,258.5 0.17596,96.46174 45.6697,182.30943 116.37891,237.17383 V 772.20117 c 0,-4.546 3.68924,-8.24023 8.24024,-8.24023 h 51.78906 c 4.551,0 8.23828,3.69423 8.23828,8.24023 v 18.76367 c 10.6655,-10.82285 22.74729,-20.59632 35.95117,-29.22461 44.699,-29.2 32.50139,-66.90078 39.90039,-111.80078 4.4,-26.601 20.99844,-50.80039 34.89844,-66.90039 5.6,-6.5 16.1,-3.399 17.5,5 8.2,50.4 73.60078,136.20118 111.30078,192.20117 30.56713,45.49854 38.20876,87.14807 39.95508,109.32032 h 8.58594 c 4.551,0 8.23828,3.68328 8.23828,8.23828 v 85.99023 c 57.12955,-43.41918 97.86987,-106.87637 112.62109,-177.44922 13.3,-63.6 5.80078,-129.29961 -15.69922,-190.09961 -12.7,-35.9 -30.2,-70.00156 -51.5,-101.60156 -68.9,-102.5 -188.79922,-259.601 -203.19922,-351.5 -1.6875,-10.5625 -10.67968,-16.86621 -19.89648,-16.93555 z"
   transform="translate(7.7479764,-146.20236)"
   id="path3773"
   inkscape:connector-curvature="0"
   sodipodi:nodetypes="sccccccsccccsssscccccccsscccccs" />

</g>
      <g
         id="g3777"
         style="fill:#ff0000;fill-opacity:1;stroke:none;stroke-opacity:1">
</g>
      <g
         id="g3779"
         style="fill:#ff0000;fill-opacity:1;stroke:none;stroke-opacity:1">
</g>
      <g
         id="g3781"
         style="fill:#ff0000;fill-opacity:1;stroke:none;stroke-opacity:1">
</g>
      <g
         id="g3783"
         style="fill:#ff0000;fill-opacity:1;stroke:none;stroke-opacity:1">
</g>
      <g
         id="g3785"
         style="fill:#ff0000;fill-opacity:1;stroke:none;stroke-opacity:1">
</g>
      <g
         id="g3787"
         style="fill:#ff0000;fill-opacity:1;stroke:none;stroke-opacity:1">
</g>
      <g
         id="g3789"
         style="fill:#ff0000;fill-opacity:1;stroke:none;stroke-opacity:1">
</g>
      <g
         id="g3791"
         style="fill:#ff0000;fill-opacity:1;stroke:none;stroke-opacity:1">
</g>
      <g
         id="g3793"
         style="fill:#ff0000;fill-opacity:1;stroke:none;stroke-opacity:1">
</g>
      <g
         id="g3795"
         style="fill:#ff0000;fill-opacity:1;stroke:none;stroke-opacity:1">
</g>
      <g
         id="g3797"
         style="fill:#ff0000;fill-opacity:1;stroke:none;stroke-opacity:1">
</g>
      <g
         id="g3799"
         style="fill:#ff0000;fill-opacity:1;stroke:none;stroke-opacity:1">
</g>
      <g
         id="g3801"
         style="fill:#ff0000;fill-opacity:1;stroke:none;stroke-opacity:1">
</g>
      <g
         id="g3803"
         style="fill:#ff0000;fill-opacity:1;stroke:none;stroke-opacity:1">
</g>
      <g
         id="g3805"
         style="fill:#ff0000;fill-opacity:1;stroke:none;stroke-opacity:1">
</g>
    </g>
    <path
       id="path3713"
       d="m 172.12801,259.772 h -13.14847 v -26.10326 c 0,-1.20518 -0.97605,-2.1799 -2.18017,-2.1799 h -13.70145 c -1.20411,0 -2.18016,0.97552 -2.18016,2.1799 V 259.772 h -8.07297 v -69.94181 c 0,-1.20306 -0.97605,-2.18016 -2.17964,-2.18016 h -13.70198 c -1.20412,0 -2.18016,0.9771 -2.18016,2.18016 V 259.772 h -8.07271 v -42.28676 c 0,-1.2028 -0.97604,-2.1799 -2.18016,-2.1799 H 90.828159 c -1.204119,0 -2.180167,0.9771 -2.180167,2.1799 V 259.772 h -8.072437 v -59.33466 c 0,-1.2028 -0.976048,-2.18017 -2.180167,-2.18017 H 64.693146 c -1.204119,0 -2.180167,0.97737 -2.180167,2.18017 v 59.3344 H 49.160111 c -3.608139,-0.4009 -3.42489,2.18043 -3.42489,2.18043 0,1.20306 0.976313,2.18017 2.180167,2.18017 h 16.777494 13.701977 12.433035 13.701976 12.43304 13.70197 12.43278 13.70198 15.3289 c 1.20412,0 2.17964,-0.97711 2.17964,-2.18017 0,-1.20518 -0.97605,-2.18017 -2.18017,-2.18017 z m -105.255226,0 v -57.15449 h 9.341644 V 259.772 Z m 26.135012,0 v -40.1066 h 9.341384 v 40.10634 h -9.341384 z m 26.134744,0 v -67.76137 h 9.34218 v 67.76111 h -9.34218 z m 26.13555,0 v -23.92309 h 9.34112 V 259.772 Z"
       inkscape:connector-curvature="0"
       sodipodi:nodetypes="scssssccssssccssssccsssscccsccccccccssscccccccccccccccccccccc"
       style="stroke-width:0.26458332;fill:#ffb300;fill-opacity:1" />
  </g>
  <g
     inkscape:groupmode="layer"
     id="layer2"
     inkscape:label="Layer 2"
     transform="translate(-31.721059,-38.682754)">
    <g
       id="g3771"
       transform="matrix(0.26458333,0,0,0.26458333,45.735351,163.02391)">
      <g
         id="g3715" />
      <g
         id="g3717" />
      <g
         id="g3719" />
      <g
         id="g3721" />
      <g
         id="g3723" />
      <g
         id="g3725" />
      <g
         id="g3727" />
      <g
         id="g3729" />
      <g
         id="g3731" />
      <g
         id="g3733" />
      <g
         id="g3735" />
      <g
         id="g3737" />
      <g
         id="g3739" />
      <g
         id="g3741" />
      <g
         id="g3743" />
      <g
         id="g3745" />
    </g>
  </g>
</svg>
